<?xml version="1.0" encoding="utf-8"?>
<!-- Generator: Adobe Illustrator 24.0.0, SVG Export Plug-In . SVG Version: 6.00 Build 0)  -->
<svg version="1.1" id="Capa_1" xmlns="http://www.w3.org/2000/svg" xmlns:xlink="http://www.w3.org/1999/xlink" x="0px" y="0px"
	 viewBox="0 0 15 13" style="enable-background:new 0 0 15 13;" xml:space="preserve">
<style type="text/css">
	.st0{fill-rule:evenodd;clip-rule:evenodd;fill:#192F2D;}
</style>
<path class="st0" d="M7.5,1.6c0.8-0.9,1.9-1.4,3.1-1.4c2.1,0,3.8,1.7,3.8,3.8c0,2.6-2.3,4.7-5.9,7.9l0,0l-1,0.9l-1-0.9l0,0
	C2.9,8.7,0.6,6.6,0.6,4c0-2.1,1.7-3.8,3.8-3.8C5.6,0.2,6.7,0.7,7.5,1.6z M7.5,11L7.5,11c3.4-3,5.5-5,5.5-7c0-1.4-1-2.4-2.4-2.4
	c-1.1,0-2.1,0.7-2.5,1.6H6.9C6.5,2.2,5.5,1.6,4.4,1.6C3,1.6,2,2.6,2,4C2,6,4.1,7.9,7.5,11L7.5,11z"/>
</svg>
